<svg width="100" height="30" viewBox="0 0 100 30" fill="none" xmlns="http://www.w3.org/2000/svg">
<path d="M43.0288 0C42.3355 0.011396 41.4779 0.00379867 40.7846 0.00379867C40.3434 0.00379867 39.9022 0.00379867 39.4075 0.00379867C44.5242 8.80722 49.6161 17.5708 54.7271 26.3647C59.8438 17.5613 64.9356 8.79772 70.0466 0.00379867C69.9358 0.00379867 69.8747 0.00379867 69.8155 0.00379867C68.7288 0.00379867 67.4892 0.00759734 66.4025 0C66.4025 0 58.652 13.2631 54.8493 19.8044C54.8168 19.8613 54.7786 19.9145 54.7252 19.9981C54.6602 19.8898 54.6087 19.8063 54.559 19.7208C52.5746 16.3058 50.5902 12.8927 48.6058 9.47768L43.0288 0Z" fill="#414141"/>
<path d="M22.0406 21.7683C21.9661 21.7721 21.8935 21.7778 21.8209 21.7778C20.7399 21.7778 19.6589 21.7759 18.5779 21.7816C18.427 21.7816 18.3315 21.7398 18.2436 21.6125C15.9192 18.2754 13.5891 14.9421 11.2609 11.6087C11.2208 11.5518 11.1807 11.4948 11.1406 11.4378L11.089 11.4549V21.7626H7.41434V5.58784C7.49265 5.58405 7.56522 5.57645 7.63589 5.57645C8.72264 5.57645 9.8113 5.58025 10.898 5.57265C11.068 5.57265 11.1673 5.62583 11.2609 5.76638C13.5777 9.25546 15.8963 12.7407 18.2169 16.2279C18.2513 16.2792 18.2837 16.3286 18.364 16.3799C18.364 16.3077 18.364 16.2355 18.364 16.1614C18.364 12.7312 18.364 9.29914 18.364 5.86895C18.364 5.54226 18.3353 5.57835 18.6619 5.57835C19.7028 5.57835 20.7418 5.57835 21.7827 5.57835H22.0406V21.7702V21.7683Z" fill="#414141"/>
<path d="M25.7783 13.6657C25.7917 9.17949 29.4587 5.55366 33.9566 5.57835C38.5003 5.60304 42.1044 9.22507 42.0853 13.7493C42.0662 18.1842 38.3838 21.8025 33.9127 21.7778C29.3995 21.7531 25.7649 18.1273 25.7783 13.6657ZM33.9394 18.5793C36.6668 18.5698 38.8689 16.378 38.867 13.6752C38.8651 10.963 36.6439 8.76543 33.9165 8.77493C31.1929 8.78632 28.9889 10.9877 28.9965 13.6885C29.0042 16.3894 31.2273 18.5888 33.9413 18.5793H33.9394Z" fill="#414141"/>
<path d="M71.7655 5.58025C74.9074 10.9858 78.0301 16.3628 81.17 21.7645C81.0783 21.7702 81.0134 21.7759 80.9485 21.7759C79.8617 21.7759 78.7731 21.774 77.6863 21.7797C77.5354 21.7797 77.4571 21.7265 77.3846 21.6011C75.5606 18.4539 73.7309 15.3086 71.9031 12.1633C71.863 12.095 71.819 12.0285 71.7636 11.9373C71.5917 12.2317 71.4351 12.4976 71.2804 12.7654C69.571 15.7056 67.8616 18.6458 66.1561 21.5878C66.0797 21.7208 65.9995 21.7778 65.839 21.7759C64.758 21.7683 63.677 21.7721 62.596 21.7721H62.3534C65.4972 16.3609 68.6218 10.9858 71.7655 5.57455V5.58025Z" fill="#414141"/>
<path d="M83.9833 9.24597H79.0691V5.58974C79.1455 5.58595 79.2181 5.57835 79.2906 5.57835C83.6491 5.57835 88.0057 5.57835 92.3641 5.57455C92.5456 5.57455 92.6105 5.61633 92.6086 5.80817C92.599 6.88889 92.6048 7.96961 92.6048 9.05033C92.6048 9.10351 92.599 9.1567 92.5952 9.23837H92.3527C90.8916 9.23837 89.4286 9.23837 87.9675 9.23837C87.7739 9.23837 87.6771 9.33144 87.6771 9.51757C87.6771 13.5157 87.6771 17.5157 87.6771 21.5138C87.6771 21.691 87.5906 21.7797 87.4174 21.7797C86.3574 21.7797 85.2955 21.7797 84.2355 21.7797H83.9833V9.24597Z" fill="#414141"/>
<path d="M3.6556 21.7645H0V5.59544H3.6556V21.7645Z" fill="#414141"/>
<path d="M96.3406 5.58784H100V21.7645H96.3406V5.58784Z" fill="#414141"/>
<path d="M45.6855 0H49.3201L54.708 9.25736L60.1264 0H63.826L54.7557 15.6296L45.6855 0Z" fill="#414141"/>
<path d="M65.1247 26.0969H63.7648V29.8917H63.2778V26.0969H61.918V25.6277H65.1247V26.0969Z" fill="#414141"/>
<path d="M65.6996 25.6258H68.2837V26.095H66.1866V27.4321H68.1443V27.9012H66.1866V29.4188H68.3888V29.8879H65.6996V25.6239V25.6258Z" fill="#414141"/>
<path d="M72.0253 26.5052C71.7808 26.1614 71.3912 25.9867 70.9978 25.9867C70.0791 25.9867 69.4297 26.8243 69.4297 27.7569C69.4297 28.7445 70.0753 29.5271 70.9978 29.5271C71.4982 29.5271 71.8973 29.3162 72.1876 28.9307L72.5543 29.2498C72.1876 29.7626 71.6548 29.9962 70.9978 29.9962C69.8193 29.9962 68.9064 29.0503 68.9064 27.755C68.9064 26.4596 69.7773 25.5138 70.9978 25.5138C71.5555 25.5138 72.1017 25.7132 72.4493 26.1823L72.0253 26.5014V26.5052Z" fill="#414141"/>
<path d="M73.2343 25.6258H73.8493L76.2309 29.1681H76.2424V25.6258H76.7294V29.8898H76.1144L73.7328 26.3476H73.7213V29.8898H73.2343V25.6258Z" fill="#414141"/>
<path d="M77.5163 27.7588C77.5163 26.4691 78.4159 25.5176 79.665 25.5176C80.9141 25.5176 81.8137 26.4691 81.8137 27.7588C81.8137 29.0484 80.9141 30 79.665 30C78.4159 30 77.5163 29.0484 77.5163 27.7588ZM81.2923 27.7588C81.2923 26.7768 80.6295 25.9886 79.665 25.9886C78.7005 25.9886 78.0377 26.7768 78.0377 27.7588C78.0377 28.7407 78.7005 29.529 79.665 29.529C80.6295 29.529 81.2923 28.7407 81.2923 27.7588Z" fill="#414141"/>
<path d="M83.0857 25.6258V29.4207H84.967V29.8898H82.5967V25.6258H83.0857Z" fill="#414141"/>
<path d="M85.2668 27.7588C85.2668 26.4691 86.1664 25.5176 87.4155 25.5176C88.6646 25.5176 89.5642 26.4691 89.5642 27.7588C89.5642 29.0484 88.6646 30 87.4155 30C86.1664 30 85.2668 29.0484 85.2668 27.7588ZM89.0427 27.7588C89.0427 26.7768 88.38 25.9886 87.4155 25.9886C86.451 25.9886 85.7882 26.7768 85.7882 27.7588C85.7882 28.7407 86.451 29.529 87.4155 29.529C88.38 29.529 89.0427 28.7407 89.0427 27.7588Z" fill="#414141"/>
<path d="M93.8462 29.6011C93.3764 29.8727 92.8416 29.9981 92.3068 29.9981C91.0291 29.9981 90.1104 29.094 90.1104 27.7569C90.1104 26.4198 91.0921 25.5157 92.324 25.5157C92.8645 25.5157 93.3878 25.6657 93.7755 26.076L93.4088 26.4729C93.13 26.1595 92.706 25.9848 92.2877 25.9848C91.3461 25.9848 90.6318 26.7199 90.6318 27.755C90.6318 28.7901 91.3232 29.5252 92.3335 29.5252C92.664 29.5252 93.0536 29.434 93.3554 29.2783V27.9715H92.408V27.5024H93.8424V29.5992L93.8462 29.6011Z" fill="#414141"/>
<path d="M94.8699 25.6258H95.357V29.8898H94.8699V25.6258Z" fill="#414141"/>
<path d="M98.1741 25.6258L99.9217 29.8898H99.3525L98.9343 28.8414H96.8773L96.4533 29.8898H95.9013L97.7138 25.6258H98.1741ZM97.9373 26.2773H97.9258L97.0721 28.3742H98.7509L97.9373 26.2773Z" fill="#414141"/>
</svg>
